<svg xmlns="http://www.w3.org/2000/svg" viewBox="0 0 16 16">
  <defs>
    <style>
      .a, .c {
        fill: none;
      }

      .b {
        fill: #555;
      }

      .c {
        stroke: #555;
        stroke-miterlimit: 10;
      }
    </style>
  </defs>
  <title>share_calendar</title>
  <g>
    <rect class="a" width="16" height="16"/>
    <g>
      <g>
        <path class="b" d="M5.716,8.613h.513a.713.713,0,0,0,.542-.185.677.677,0,0,0,.177-.492.6.6,0,0,0-.175-.461.669.669,0,0,0-.481-.165.7.7,0,0,0-.463.153.49.49,0,0,0-.186.4H4.681a1.207,1.207,0,0,1,.2-.688A1.374,1.374,0,0,1,5.458,6.7a1.887,1.887,0,0,1,.811-.172A1.8,1.8,0,0,1,7.475,6.9,1.28,1.28,0,0,1,7.91,7.923a1.033,1.033,0,0,1-.2.619,1.314,1.314,0,0,1-.532.435,1.145,1.145,0,0,1,.812,1.145,1.3,1.3,0,0,1-.471,1.048,1.879,1.879,0,0,1-1.247.394,1.777,1.777,0,0,1-1.187-.387,1.271,1.271,0,0,1-.462-1.025h.963a.568.568,0,0,0,.2.452.75.75,0,0,0,.5.175A.75.75,0,0,0,6.83,10.6a.635.635,0,0,0,.194-.487q0-.735-.8-.735h-.51Z"/>
        <path class="b" d="M10.987,11.5h-.962V7.744L8.876,8.1V7.312l2.009-.727h.1Z"/>
      </g>
      <rect class="c" x="0.5" y="0.5" width="15" height="15" rx="1" ry="1"/>
      <path class="c" d="M12.5,9l1,3.5a1,1,0,0,1-1,1h-9a1,1,0,0,1-1-1L3.5,9l-1-3.5a1,1,0,0,1,1-1h9a1,1,0,0,1,1,1Z"/>
      <path class="c" d="M4.5,2.5h7a1,1,0,0,1,1,1v1a0,0,0,0,1,0,0h-9a0,0,0,0,1,0,0v-1A1,1,0,0,1,4.5,2.5Z"/>
    </g>
  </g>
</svg>
