<svg xmlns="http://www.w3.org/2000/svg" xmlns:xlink="http://www.w3.org/1999/xlink" width="16" height="16" viewBox="0 0 16 16"><defs><style>.a{fill:none;}.b{clip-path:url(#a);}.c{fill:rgba(255,255,255,0.7);}</style><clipPath id="a"><rect class="a" width="16" height="16"/></clipPath></defs><g class="b"><path class="c" d="M1142,23.3a6.7,6.7,0,1,0,6.7,6.7A6.7,6.7,0,0,0,1142,23.3Zm4.6,4h-2a11.721,11.721,0,0,0-.9-2.4A5.364,5.364,0,0,1,1146.6,27.3Zm-4.6-2.6a9.057,9.057,0,0,1,1.3,2.6h-2.5A6.82,6.82,0,0,1,1142,24.7Zm-5.2,6.6a5.854,5.854,0,0,1-.2-1.3,5.854,5.854,0,0,1,.2-1.3h2.3a5.7,5.7,0,0,0-.1,1.3,5.7,5.7,0,0,0,.1,1.3Zm.6,1.4h2a11.721,11.721,0,0,0,.9,2.4A5.364,5.364,0,0,1,1137.4,32.7Zm2-5.4h-2a5.3,5.3,0,0,1,2.9-2.4A11.721,11.721,0,0,0,1139.4,27.3Zm2.6,8a9.057,9.057,0,0,1-1.3-2.6h2.5A6.82,6.82,0,0,1,1142,35.3Zm1.6-4h-3.1a5.7,5.7,0,0,1-.1-1.3,5.7,5.7,0,0,1,.1-1.3h3.1a5.7,5.7,0,0,1,.1,1.3C1143.7,30.4,1143.6,30.9,1143.6,31.3Zm.1,3.7a8.545,8.545,0,0,0,.9-2.4h2A4.644,4.644,0,0,1,1143.7,35Zm1.2-3.7a5.7,5.7,0,0,0,.1-1.3,5.7,5.7,0,0,0-.1-1.3h2.3a5.854,5.854,0,0,1,.2,1.3,5.854,5.854,0,0,1-.2,1.3Z" transform="translate(-1134 -22)"/></g></svg>