<svg xmlns="http://www.w3.org/2000/svg" xmlns:xlink="http://www.w3.org/1999/xlink" width="13" height="13" viewBox="0 0 13 13"><defs><style>.a{fill:none;}.b{clip-path:url(#a);}</style><clipPath id="a"><rect class="a" width="13" height="13" transform="translate(-1)"/></clipPath></defs><g class="b" transform="translate(1)"><path d="M186.491-8932a1,1,0,0,1,1-1,1,1,0,0,1,1,1,1,1,0,0,1-1,1A1,1,0,0,1,186.491-8932Zm-5,0a1,1,0,0,1,1-1,1,1,0,0,1,1,1,1,1,0,0,1-1,1A1,1,0,0,1,181.491-8932Zm-.417-2L180-8939.909l.983-.18.925,5.088h6.161l1-6h2.424v1h-1.578l-1,6Zm1.564-5.146.707-.707,1.147,1.147V-8943h1v4.294l1.145-1.147.707.707-2.352,2.354Z" transform="translate(-179.492 8944)"/></g></svg>