<svg xmlns="http://www.w3.org/2000/svg" xmlns:xlink="http://www.w3.org/1999/xlink" width="13" height="13" viewBox="0 0 13 13"><defs><style>.a{fill:none;}.b{clip-path:url(#a);}.c{fill:#555;}</style><clipPath id="a"><rect class="a" width="13" height="13" transform="translate(-1)"/></clipPath></defs><g class="b" transform="translate(1)"><path class="c" d="M186.492-8911a1,1,0,0,1,1-1,1,1,0,0,1,1,1,1,1,0,0,1-1,1A1,1,0,0,1,186.492-8911Zm-5,0a1,1,0,0,1,1-1,1,1,0,0,1,1,1,1,1,0,0,1-1,1A1,1,0,0,1,181.492-8911Zm-.419-2L180-8918.91l.985-.179.925,5.089h6.16l1-6h2.425v1h-1.576l-1,6Zm1.565-5.146.705-.708,1.146,1.146V-8922h1v4.292l1.146-1.146.708.708-2.353,2.354Z" transform="translate(-179.492 8923)"/></g></svg>