<svg xmlns="http://www.w3.org/2000/svg" xmlns:xlink="http://www.w3.org/1999/xlink" width="13" height="13" viewBox="0 0 13 13"><defs><style>.a{fill:none;}.b{clip-path:url(#a);}.c{fill:#ccc;}</style><clipPath id="a"><rect class="a" width="13" height="13" transform="translate(-1)"/></clipPath></defs><g class="b" transform="translate(1)"><path class="c" d="M186.491-8953a1,1,0,0,1,1-1,1,1,0,0,1,1,1,1,1,0,0,1-1,1A1,1,0,0,1,186.491-8953Zm-5,0a1,1,0,0,1,1-1,1,1,0,0,1,1,1,1,1,0,0,1-1,1A1,1,0,0,1,181.492-8953Zm-.418-2-1.073-5.91.983-.18.925,5.088h6.16l1-6h2.423v1h-1.577l-1,6Zm1.566-5.147.706-.707,1.145,1.146V-8964h1v4.292l1.147-1.146.706.707-2.353,2.353Z" transform="translate(-179.492 8965)"/></g></svg>