<svg xmlns="http://www.w3.org/2000/svg" xmlns:xlink="http://www.w3.org/1999/xlink" width="10" height="12" viewBox="0 0 10 12"><defs><style>.a{fill:none;}.b{clip-path:url(#a);}.c{fill:#963246;}</style><clipPath id="a"><rect class="a" width="10" height="12"/></clipPath></defs><g class="b"><path class="c" d="M280-8999a5.007,5.007,0,0,1,5-5,5.005,5.005,0,0,1,5,5,5,5,0,0,1-5,5A5.006,5.006,0,0,1,280-8999Zm1,0a4,4,0,0,0,4,4,4,4,0,0,0,4-4,4,4,0,0,0-4-4A4.005,4.005,0,0,0,281-8999Zm1.15-.14.707-.708,1.645,1.647,2.648-2.648.707.708-3.356,3.354Z" transform="translate(-280 9005)"/></g></svg>