<svg xmlns="http://www.w3.org/2000/svg" xmlns:xlink="http://www.w3.org/1999/xlink" width="13" height="13" viewBox="0 0 13 13"><defs><style>.a{fill:none;}.b{clip-path:url(#a);}</style><clipPath id="a"><rect class="a" width="13" height="13" transform="translate(-1)"/></clipPath></defs><g class="b" transform="translate(1)"><path d="M164.492-8932.292a1,1,0,0,1,1-1,1,1,0,0,1,1,1,1,1,0,0,1-1,1A1,1,0,0,1,164.492-8932.292Zm-5,0a1,1,0,0,1,1-1,1,1,0,0,1,1,1,1,1,0,0,1-1,1A1,1,0,0,1,159.491-8932.292Zm-.417-2L158-8940.2l.983-.18.925,5.09h6.159l1-6h2.424v1h-1.578l-1,6Zm3.418-2.5v-4.294l-1.147,1.147-.707-.707,2.354-2.354,2.352,2.354-.707.707-1.147-1.147v4.294Z" transform="translate(-157.492 8944.293)"/></g></svg>