<svg xmlns="http://www.w3.org/2000/svg" xmlns:xlink="http://www.w3.org/1999/xlink" width="13" height="13" viewBox="0 0 13 13"><defs><style>.a{fill:none;}.b{clip-path:url(#a);}.c{fill:#555;}</style><clipPath id="a"><rect class="a" width="13" height="13" transform="translate(-1)"/></clipPath></defs><g class="b" transform="translate(1)"><path class="c" d="M164.491-8911.293a1,1,0,0,1,1-1,1,1,0,0,1,1,1,1,1,0,0,1-1,1A1,1,0,0,1,164.491-8911.293Zm-5,0a1,1,0,0,1,1-1,1,1,0,0,1,1,1,1,1,0,0,1-1,1A1,1,0,0,1,159.491-8911.293Zm-.416-2L158-8919.2l.983-.18.927,5.09h6.16l1-6h2.424v1h-1.577l-1,6Zm3.417-2.5v-4.293l-1.146,1.146-.708-.707,2.356-2.354,2.353,2.354-.708.707-1.146-1.146v4.293Z" transform="translate(-157.492 8923.293)"/></g></svg>