<svg xmlns="http://www.w3.org/2000/svg" xmlns:xlink="http://www.w3.org/1999/xlink" width="10" height="12" viewBox="0 0 10 12"><defs><style>.a{fill:none;}.b{clip-path:url(#a);}.c{fill:#e54c65;}</style><clipPath id="a"><rect class="a" width="10" height="12"/></clipPath></defs><g class="b"><path class="c" d="M-334-8837a5.007,5.007,0,0,1,5-5,5.005,5.005,0,0,1,5,5,5,5,0,0,1-5,5A5.007,5.007,0,0,1-334-8837Zm1,0a4.006,4.006,0,0,0,4,4,4,4,0,0,0,4-4,4,4,0,0,0-4-4A4.006,4.006,0,0,0-333-8837Zm2,0a2,2,0,0,1,2-2,2,2,0,0,1,2,2,2,2,0,0,1-2,2A2,2,0,0,1-331-8837Z" transform="translate(334.001 8843)"/></g></svg>