<svg xmlns="http://www.w3.org/2000/svg" viewBox="0 0 19 19">
  <defs>
    <style>
      .a, .b {
        fill: none;
      }

      .b {
        stroke: #555;
        stroke-miterlimit: 10;
      }

      .c {
        fill: #555;
      }
    </style>
  </defs>
  <title>share_calendar</title>
  <g>
    <rect class="a" width="19" height="19"/>
    <g>
      <line class="b" x1="3" y1="10.5" x2="5" y2="10.5"/>
      <line class="b" x1="14" y1="10.5" x2="16" y2="10.5"/>
      <g>
        <path class="c" d="M-233.325-89.9h.607a1.081,1.081,0,0,0,.729-.241.868.868,0,0,0,.268-.685.948.948,0,0,0-.223-.67.9.9,0,0,0-.684-.238.946.946,0,0,0-.66.234.788.788,0,0,0-.259.612h-1a1.533,1.533,0,0,1,.244-.846,1.644,1.644,0,0,1,.681-.6,2.188,2.188,0,0,1,.978-.214,2.042,2.042,0,0,1,1.406.454,1.611,1.611,0,0,1,.51,1.264,1.3,1.3,0,0,1-.256.766,1.6,1.6,0,0,1-.663.541,1.454,1.454,0,0,1,.748.537,1.474,1.474,0,0,1,.257.871,1.636,1.636,0,0,1-.551,1.3,2.13,2.13,0,0,1-1.451.481,2.109,2.109,0,0,1-1.411-.465,1.534,1.534,0,0,1-.55-1.237h1a.847.847,0,0,0,.265.648.994.994,0,0,0,.711.248,1.028,1.028,0,0,0,.731-.248.943.943,0,0,0,.266-.722.951.951,0,0,0-.278-.735,1.185,1.185,0,0,0-.829-.257h-.587Z" transform="translate(240 100)"/>
        <path class="c" d="M-227-86.419H-228v-4.854l-1.464.5v-.846l2.33-.867H-227Z" transform="translate(240 100)"/>
      </g>
      <rect class="b" x="0.5" y="0.5" width="18" height="18" rx="1.5" ry="1.5"/>
      <path class="b" d="M-224.5-89.5l1,5a1,1,0,0,1-1,1h-12a1,1,0,0,1-1-1l1-5-1-5a1,1,0,0,1,1-1h12a1,1,0,0,1,1,1Z" transform="translate(240 100)"/>
      <path class="b" d="M4.5,2.5h10a1,1,0,0,1,1,1v1a0,0,0,0,1,0,0H3.5a0,0,0,0,1,0,0v-1A1,1,0,0,1,4.5,2.5Z"/>
    </g>
  </g>
</svg>
