<svg xmlns="http://www.w3.org/2000/svg" xmlns:xlink="http://www.w3.org/1999/xlink" width="19" height="19" viewBox="0 0 19 19"><defs><style>.a{fill:none;}.b{clip-path:url(#a);}.c{fill:#555;}</style><clipPath id="a"><rect class="a" width="19" height="19"/></clipPath></defs><g class="b"><g transform="translate(-441 -110)"><path class="c" d="M458,110H443a2,2,0,0,0-2,2v15a2,2,0,0,0,2,2h15a2,2,0,0,0,2-2V112A2,2,0,0,0,458,110Zm1,17a1,1,0,0,1-1,1H443a1,1,0,0,1-1-1V112a1,1,0,0,1,1-1h15a1,1,0,0,1,1,1Z"/><path class="c" d="M455.5,113h-10a1.5,1.5,0,0,0-1.5,1.5v10a1.5,1.5,0,0,0,1.5,1.5h10a1.5,1.5,0,0,0,1.5-1.5v-10A1.5,1.5,0,0,0,455.5,113ZM445,117h3v2h-3Zm4,2v-2h3v2Zm3,1v2h-3v-2Zm-7,0h3v2h-3Zm.5,5a.5.5,0,0,1-.5-.5V123h3v2Zm3.5,0v-2h3v2Zm7-.5a.5.5,0,0,1-.5.5H453v-2h3Zm0-2.5h-3v-2h3Zm0-3h-3v-2h3Zm-3-3h-8v-1.5a.5.5,0,0,1,.5-.5h10a.5.5,0,0,1,.5.5V116Z"/></g></g></svg>