<svg xmlns="http://www.w3.org/2000/svg" xmlns:xlink="http://www.w3.org/1999/xlink" width="19" height="19" viewBox="0 0 19 19"><defs><style>.a{fill:none;}.b{clip-path:url(#a);}.c{fill:#ccc;}</style><clipPath id="a"><rect class="a" width="19" height="19"/></clipPath></defs><g class="b"><path class="c" d="M-108-8903a2,2,0,0,1-2-2v-15a2,2,0,0,1,2-2h15a2,2,0,0,1,2,2v15a2,2,0,0,1-2,2Zm-1-17v15a1,1,0,0,0,1,1h15a1,1,0,0,0,1-1v-15a1,1,0,0,0-1-1h-15A1,1,0,0,0-109-8920Zm2.5,15a1.5,1.5,0,0,1-1.5-1.5l.99-5-.981-4.9a1.539,1.539,0,0,1,.992-1.5v-.593a1.5,1.5,0,0,1,1.5-1.5h10a1.5,1.5,0,0,1,1.5,1.5v.591a1.5,1.5,0,0,1,1,1.408l-.99,5,.979,4.9A1.51,1.51,0,0,1-94.5-8905Zm-.511-1.4a.519.519,0,0,0,.511.4h12a.5.5,0,0,0,.5-.5l-.909-4.5H-96v-1h1.09l.92-4.6a.516.516,0,0,0-.511-.4h-12a.5.5,0,0,0-.5.5l.907,4.5H-105v1h-1.09Zm1.01-12.1v.5h11v-.5a.5.5,0,0,0-.5-.5h-10A.5.5,0,0,0-106-8918.5Zm1.968,9.722a1.422,1.422,0,0,1-.54-1.233l.009-.027h.958a.85.85,0,0,0,.266.649,1,1,0,0,0,.71.249,1.024,1.024,0,0,0,.732-.253.943.943,0,0,0,.264-.717,1.018,1.018,0,0,0-.244-.752,1.031,1.031,0,0,0-.757-.242h-.692v-.793h.692a.886.886,0,0,0,.7-.241,1.021,1.021,0,0,0,.213-.687.933.933,0,0,0-.228-.674.9.9,0,0,0-.678-.24.947.947,0,0,0-.663.235.8.8,0,0,0-.255.616h-.961l-.009-.025a1.424,1.424,0,0,1,.513-1.164,1.987,1.987,0,0,1,1.364-.47,2.065,2.065,0,0,1,1.395.447,1.588,1.588,0,0,1,.519,1.274,1.356,1.356,0,0,1-.233.748,1.556,1.556,0,0,1-.665.56,1.421,1.421,0,0,1,.748.555,1.533,1.533,0,0,1,.242.852,1.613,1.613,0,0,1-.564,1.3,2.155,2.155,0,0,1-1.442.476A2.172,2.172,0,0,1-104.032-8908.778Zm5.831.358v-5.083h-1.214v-.743l2.21-.215v6.041Z" transform="translate(110 8922)"/></g></svg>