<svg xmlns="http://www.w3.org/2000/svg" xmlns:xlink="http://www.w3.org/1999/xlink" width="19" height="19" viewBox="0 0 19 19"><defs><style>.a{fill:none;}.b{clip-path:url(#a);}</style><clipPath id="a"><rect class="a" width="19" height="19"/></clipPath></defs><g class="b"><path d="M916,774H901a2,2,0,0,0-2,2v15a2,2,0,0,0,2,2h15a2,2,0,0,0,2-2V776A2,2,0,0,0,916,774Zm-6.386,18v-6.971h-2.345v-1.716h2.345v-2.5a2.771,2.771,0,0,1,2.994-3.091c.625,0,1.2.03,1.6.06v1.476h-.938a1.618,1.618,0,0,0-1.846,1.822v2.235h2.621l-.221,1.716h-2.4V792ZM917,791a1,1,0,0,1-1,1h-3.58v-5.971H914.7l.479-3.716H912.42v-1.235c0-.6.073-.822.846-.822H915.2v-3.369l-.435-.057a20.1,20.1,0,0,0-2.161-.11,3.751,3.751,0,0,0-3.994,4.091v1.5h-2.345v3.716h2.345V792H901a1,1,0,0,1-1-1V776a1,1,0,0,1,1-1h15a1,1,0,0,1,1,1Z" transform="translate(-899 -774)"/></g></svg>