<svg xmlns="http://www.w3.org/2000/svg" xmlns:xlink="http://www.w3.org/1999/xlink" width="19" height="19" viewBox="0 0 19 19"><defs><style>.a{fill:none;}.b{clip-path:url(#a);}</style><clipPath id="a"><rect class="a" width="19" height="19" transform="translate(0)"/></clipPath></defs><g class="b" transform="translate(0)"><path d="M-79-8924a2,2,0,0,1-2-2v-15a2,2,0,0,1,2-2h15a2,2,0,0,1,2,2v15a2,2,0,0,1-2,2Zm-1-17v15a1,1,0,0,0,1,1h15a1,1,0,0,0,1-1v-15a1,1,0,0,0-1-1H-79A1,1,0,0,0-80-8941Zm.633,15,5.629-9.75,3.1,5.376,2.235-3.874,4.765,8.248Zm1.733-1h12.268l-3.032-5.249-2.235,3.874-3.1-5.376ZM-70-8938a3,3,0,0,1,3-3,3,3,0,0,1,3,3,3,3,0,0,1-3,3A3,3,0,0,1-70-8938Zm1,0a2,2,0,0,0,2,2,2,2,0,0,0,2-2,2,2,0,0,0-2-2A2,2,0,0,0-69-8938Z" transform="translate(81 8943)"/></g></svg>