<svg xmlns="http://www.w3.org/2000/svg" xmlns:xlink="http://www.w3.org/1999/xlink" width="19" height="19" viewBox="0 0 19 19"><defs><style>.a{fill:none;}.b{clip-path:url(#a);}.c{fill:#ccc;}</style><clipPath id="a"><rect class="a" width="19" height="19" transform="translate(0)"/></clipPath></defs><g class="b" transform="translate(0)"><g transform="translate(-354 -110)"><path class="c" d="M371,110H356a2,2,0,0,0-2,2v15a2,2,0,0,0,2,2h15a2,2,0,0,0,2-2V112A2,2,0,0,0,371,110Zm1,17a1,1,0,0,1-1,1H356a1,1,0,0,1-1-1V112a1,1,0,0,1,1-1h15a1,1,0,0,1,1,1Z"/><path class="c" d="M367.5,118a2.5,2.5,0,1,0-2.5-2.5A2.5,2.5,0,0,0,367.5,118Zm0-4a1.5,1.5,0,1,1-1.5,1.5A1.5,1.5,0,0,1,367.5,114Z"/><path class="c" d="M364.242,121.954l-2.659-4.723L356.645,126h13.71l-4.2-7.451ZM358.355,125l3.228-5.731,2.659,4.723,1.918-3.4L368.645,125Z"/></g></g></svg>