<svg xmlns="http://www.w3.org/2000/svg" xmlns:xlink="http://www.w3.org/1999/xlink" width="19" height="19" viewBox="0 0 19 19"><defs><style>.a{fill:none;}.b{clip-path:url(#a);}</style><clipPath id="a"><rect class="a" width="19" height="19"/></clipPath></defs><g class="b"><g transform="translate(-412 -110)"><path d="M429,110H414a2,2,0,0,0-2,2v15a2,2,0,0,0,2,2h15a2,2,0,0,0,2-2V112A2,2,0,0,0,429,110Zm1,17a1,1,0,0,1-1,1H414a1,1,0,0,1-1-1V112a1,1,0,0,1,1-1h15a1,1,0,0,1,1,1Z"/><path d="M416,126h11V113H416Zm1-12h9v11h-9Z"/><path d="M418,118h7v-3h-7Zm1-2h5v1h-5Z"/><rect width="7" height="1" transform="translate(418 121)"/><rect width="7" height="1" transform="translate(418 123)"/><rect width="7" height="1" transform="translate(418 119)"/></g></g></svg>