<svg xmlns="http://www.w3.org/2000/svg" xmlns:xlink="http://www.w3.org/1999/xlink" width="19" height="19" viewBox="0 0 19 19"><defs><style>.a{fill:none;}.b{clip-path:url(#a);}.c{stroke:rgba(0,0,0,0);}</style><clipPath id="a"><rect class="a" width="19" height="19"/></clipPath></defs><g class="b"><path class="c" d="M726-8076a2,2,0,0,1-2-2v-15a2,2,0,0,1,2-2h15a2,2,0,0,1,2,2v15a2,2,0,0,1-2,2Zm-1-17v15a1,1,0,0,0,1,1h15a1,1,0,0,0,1-1v-15a1,1,0,0,0-1-1H726A1,1,0,0,0,725-8093Zm2,14v-1h13v1Zm0-3v-1h13v1Zm0-3v-1h13v1Zm0-3v-4h13v4Zm1-1h11v-2H728Z" transform="translate(-724 8095)"/></g></svg>