<svg xmlns="http://www.w3.org/2000/svg" xmlns:xlink="http://www.w3.org/1999/xlink" width="19" height="19" viewBox="0 0 19 19"><defs><style>.a{fill:none;}.b{clip-path:url(#a);}.c{fill:#ccc;}</style><clipPath id="a"><rect class="a" width="19" height="19"/></clipPath></defs><g class="b"><g transform="translate(-383 -110)"><path class="c" d="M391.621,120.479a1.336,1.336,0,0,0,.545-.447,1.063,1.063,0,0,0,.211-.631,1.324,1.324,0,0,0-.42-1.041,1.681,1.681,0,0,0-1.157-.374,1.81,1.81,0,0,0-.806.176,1.347,1.347,0,0,0-.56.49,1.265,1.265,0,0,0-.2.7h.821a.649.649,0,0,1,.213-.5.778.778,0,0,1,.544-.194.735.735,0,0,1,.562.2.771.771,0,0,1,.185.551.713.713,0,0,1-.222.564.889.889,0,0,1-.6.2h-.5v.656h.484a.979.979,0,0,1,.682.211.786.786,0,0,1,.23.606.771.771,0,0,1-.22.594.845.845,0,0,1-.6.206.818.818,0,0,1-.586-.206.694.694,0,0,1-.218-.533h-.821a1.267,1.267,0,0,0,.453,1.019,1.974,1.974,0,0,0,2.356-.014,1.344,1.344,0,0,0,.454-1.066,1.213,1.213,0,0,0-.211-.718A1.2,1.2,0,0,0,391.621,120.479Z"/><path class="c" d="M393.418,118.752v.7l1.206-.416v4h.817v-4.994h-.1Z"/><path class="c" d="M400,110H385a2,2,0,0,0-2,2v15a2,2,0,0,0,2,2h15a2,2,0,0,0,2-2V112A2,2,0,0,0,400,110Zm1,17a1,1,0,0,1-1,1H385a1,1,0,0,1-1-1V112a1,1,0,0,1,1-1h15a1,1,0,0,1,1,1Z"/><path class="c" d="M399,116.333a1.335,1.335,0,0,0-1-1.28V114.5a1.5,1.5,0,0,0-1.5-1.5h-8a1.5,1.5,0,0,0-1.5,1.5v.553a1.335,1.335,0,0,0-1,1.28l.847,4.167-.837,4.066-.01.1A1.347,1.347,0,0,0,387.357,126h10.286A1.347,1.347,0,0,0,399,124.667l-.847-4.167.837-4.066ZM388,114.5a.5.5,0,0,1,.5-.5h8a.5.5,0,0,1,.5.5v.5h-9Zm9.643,10.5H387.357a.355.355,0,0,1-.355-.295l.762-3.705H389v-1h-1.236L387,116.295a.355.355,0,0,1,.355-.295h10.286a.355.355,0,0,1,.355.295L397.236,120H396v1h1.236l.762,3.705A.355.355,0,0,1,397.643,125Z"/></g></g></svg>