<svg xmlns="http://www.w3.org/2000/svg" xmlns:xlink="http://www.w3.org/1999/xlink" width="19" height="19" viewBox="0 0 19 19"><defs><style>.a{fill:none;}.b{clip-path:url(#a);}</style><clipPath id="a"><rect class="a" width="19" height="19" transform="translate(0)"/></clipPath></defs><g class="b" transform="translate(0)"><path d="M-108-8924a2,2,0,0,1-2-2v-15a2,2,0,0,1,2-2h15a2,2,0,0,1,2,2v15a2,2,0,0,1-2,2Zm-1-17v15a1,1,0,0,0,1,1h15a1,1,0,0,0,1-1v-15a1,1,0,0,0-1-1h-15A1,1,0,0,0-109-8941Zm2.5,15a1.5,1.5,0,0,1-1.5-1.5l.99-5-.979-4.9a1.534,1.534,0,0,1,.99-1.5v-.595a1.5,1.5,0,0,1,1.5-1.5h10a1.5,1.5,0,0,1,1.5,1.5v.593a1.494,1.494,0,0,1,1,1.409l-.99,5,.981,4.9a1.51,1.51,0,0,1-1.49,1.6Zm-.512-1.4a.517.517,0,0,0,.512.4h12a.5.5,0,0,0,.5-.5l-.909-4.5H-96v-1h1.089l.92-4.6a.512.512,0,0,0-.509-.4h-12a.5.5,0,0,0-.5.5l.909,4.5H-105v1h-1.091Zm1.01-12.1v.5h11v-.5a.5.5,0,0,0-.5-.5h-10A.5.5,0,0,0-106-8939.5Zm1.968,9.723a1.422,1.422,0,0,1-.539-1.234l.009-.024h.958a.843.843,0,0,0,.267.648.994.994,0,0,0,.709.247,1.012,1.012,0,0,0,.729-.252.943.943,0,0,0,.267-.718,1.021,1.021,0,0,0-.245-.752,1.045,1.045,0,0,0-.756-.24h-.694v-.792h.694a.876.876,0,0,0,.7-.245,1,1,0,0,0,.215-.687.934.934,0,0,0-.229-.673.9.9,0,0,0-.678-.238.936.936,0,0,0-.662.233.8.8,0,0,0-.258.617h-.961l-.007-.027a1.417,1.417,0,0,1,.512-1.162,1.984,1.984,0,0,1,1.362-.472,2.058,2.058,0,0,1,1.4.449,1.585,1.585,0,0,1,.521,1.272,1.362,1.362,0,0,1-.233.747,1.562,1.562,0,0,1-.664.562,1.415,1.415,0,0,1,.747.557,1.544,1.544,0,0,1,.24.851,1.617,1.617,0,0,1-.563,1.3,2.168,2.168,0,0,1-1.443.476A2.166,2.166,0,0,1-104.032-8929.778Zm5.831.359v-5.084h-1.214v-.742l2.211-.216v6.042Z" transform="translate(110 8943)"/></g></svg>