<svg xmlns="http://www.w3.org/2000/svg" xmlns:xlink="http://www.w3.org/1999/xlink" width="13" height="13" viewBox="0 0 13 13"><defs><style>.a{fill:none;}.b{clip-path:url(#a);}.c{stroke:rgba(0,0,0,0);}</style><clipPath id="a"><rect class="a" width="13" height="13" transform="translate(0 1)"/></clipPath></defs><g class="b" transform="translate(0 -1)"><path class="c" d="M431-8753a1,1,0,0,1-1-1v-3a1,1,0,0,1,1-1h9a1,1,0,0,1,1,1v3a1,1,0,0,1-1,1Zm0-1h9v-3h-9Zm0-5a1,1,0,0,1-1-1v-3a1,1,0,0,1,1-1h9a1,1,0,0,1,1,1v3a1,1,0,0,1-1,1Zm0-1h9v-3h-9Z" transform="translate(-429 8766)"/></g></svg>