<svg xmlns="http://www.w3.org/2000/svg" xmlns:xlink="http://www.w3.org/1999/xlink" width="26" height="26" viewBox="0 0 26 26"><defs><style>.a{fill:none;}.b{clip-path:url(#a);}.c{fill:#aaa;}</style><clipPath id="a"><rect class="a" width="26" height="26" transform="translate(862 158)"/></clipPath></defs><g class="b" transform="translate(-862 -158)"><path class="c" d="M645,82.236l1.519,4.674.224.691h5.641l-3.976,2.888-.588.427.225.691,1.519,4.674-3.976-2.888L645,92.966l-.588.427-3.976,2.888,1.519-4.674.225-.691-.588-.427L637.616,87.6h5.641l.224-.691L645,82.236M645,79l-2.47,7.6h-7.992L641,91.3l-2.47,7.6L645,94.2l6.466,4.7L649,91.3l6.466-4.7H647.47L645,79Z" transform="translate(230 81)"/></g></svg>