<svg xmlns="http://www.w3.org/2000/svg" xmlns:xlink="http://www.w3.org/1999/xlink" width="13" height="13" viewBox="0 0 13 13"><defs><style>.a{fill:none;}.b{clip-path:url(#a);}.c{fill:#555;}</style><clipPath id="a"><rect class="a" width="13" height="13"/></clipPath></defs><g class="b"><path class="c" d="M373.572-8466a1,1,0,0,1,1-1,1,1,0,0,1,1,1,1,1,0,0,1-1,1A1,1,0,0,1,373.572-8466Zm-5,0a1,1,0,0,1,1-1,1,1,0,0,1,1,1,1,1,0,0,1-1,1A1,1,0,0,1,368.573-8466Zm-.415-2L367-8474h8.851l.285-2h2.436v1h-1.568l-1,7Zm.827-1h6.152l.572-4h-7.5Z" transform="translate(-365.572 8477)"/></g></svg>