<svg xmlns="http://www.w3.org/2000/svg" xmlns:xlink="http://www.w3.org/1999/xlink" width="13" height="13" viewBox="0 0 13 13"><defs><style>.a{fill:none;}.b{clip-path:url(#a);}.c{fill:#333;}</style><clipPath id="a"><rect class="a" width="13" height="13"/></clipPath></defs><g class="b"><path class="c" d="M244.572-8933a1,1,0,0,1,1-1,1,1,0,0,1,1,1,1,1,0,0,1-1,1A1,1,0,0,1,244.572-8933Zm-5,0a1,1,0,0,1,1-1,1,1,0,0,1,1,1,1,1,0,0,1-1,1A1,1,0,0,1,239.571-8933Zm-.413-2L238-8941h8.852l.285-2h2.435v1h-1.567l-1,7Zm.826-1h6.154l.572-4h-7.5Z" transform="translate(-236.572 8944)"/></g></svg>