<svg xmlns="http://www.w3.org/2000/svg" xmlns:xlink="http://www.w3.org/1999/xlink" width="13" height="13" viewBox="0 0 13 13"><defs><style>.a{fill:none;}.b{clip-path:url(#a);}.c{fill:#333;}</style><clipPath id="a"><rect class="a" width="13" height="13"/></clipPath></defs><g class="b"><g transform="translate(-185 -39)"><path class="c" d="M193.646,44.646,191,47.293l-1.646-1.646-.707.707L191,48.707l3.354-3.354Z"/><path class="c" d="M194.662,42.659,196.434,40h-4.2l-.732,1.1-.732-1.1h-4.2l1.772,2.659a5,5,0,1,0,6.324,0Zm-.1-1.659-.736,1.1a4.914,4.914,0,0,0-1.455-.514l.393-.589Zm-6.132,0h1.8l.393.589a4.914,4.914,0,0,0-1.455.514Zm3.066,9.5a4,4,0,1,1,4-4A4,4,0,0,1,191.5,50.5Z"/></g></g></svg>