<svg xmlns="http://www.w3.org/2000/svg" xmlns:xlink="http://www.w3.org/1999/xlink" width="13" height="13" viewBox="0 0 13 13"><defs><style>.a,.c{fill:#333;}.b{clip-path:url(#a);}.c{stroke:rgba(0,0,0,0);stroke-miterlimit:10;}</style><clipPath id="a"><rect class="a" width="13" height="13"/></clipPath></defs><g class="b"><path class="c" d="M342.032-8914v-2a2.487,2.487,0,0,1,.708-1.736,7.255,7.255,0,0,1-3.386-1.91L339-8920l.354-.354a7.279,7.279,0,0,1,4.679-2.116v-.029a1.5,1.5,0,0,1,1.5-1.5v1a.5.5,0,0,0-.5.5v.029a7.268,7.268,0,0,1,4.676,2.116l.354.354-.354.354a7.237,7.237,0,0,1-3.384,1.91,2.487,2.487,0,0,1,.708,1.736v2a2.5,2.5,0,0,1-2.5,2.5A2.5,2.5,0,0,1,342.032-8914Zm1-.609v.609a1.5,1.5,0,0,0,1.5,1.5,1.5,1.5,0,0,0,1.5-1.5v-1.359Zm0-1.391v.36l2.945-.737a1.5,1.5,0,0,0-1.447-1.124A1.5,1.5,0,0,0,343.033-8916Zm-2.587-4a6.332,6.332,0,0,0,8.172,0,6.3,6.3,0,0,0-4.087-1.5A6.3,6.3,0,0,0,340.446-8920Zm4.587,0a.5.5,0,0,1,.5-.5.5.5,0,0,1,.5.5.5.5,0,0,1-.5.5A.5.5,0,0,1,345.033-8920Zm-2,0a.5.5,0,0,1,.5-.5.5.5,0,0,1,.5.5.5.5,0,0,1-.5.5A.5.5,0,0,1,343.033-8920Z" transform="translate(-338.032 8924)"/></g></svg>