<svg xmlns="http://www.w3.org/2000/svg" xmlns:xlink="http://www.w3.org/1999/xlink" width="13" height="13" viewBox="0 0 13 13"><defs><style>.a{fill:none;}.b{clip-path:url(#a);}.c{fill:#333;}</style><clipPath id="a"><rect class="a" width="13" height="13"/></clipPath></defs><g class="b"><path class="c" d="M236.5-6877a4.505,4.505,0,0,1-4.5-4.5,4.505,4.505,0,0,1,4.5-4.5,4.505,4.505,0,0,1,4.5,4.5A4.505,4.505,0,0,1,236.5-6877Zm0-8a3.5,3.5,0,0,0-3.5,3.5,3.5,3.5,0,0,0,3.5,3.5,3.5,3.5,0,0,0,3.5-3.5A3.5,3.5,0,0,0,236.5-6885Z" transform="translate(-230 6888)"/></g></svg>