<svg xmlns="http://www.w3.org/2000/svg" viewBox="0 0 437 216"><title>Services-OTL</title><polygon points="0 149.46 34.08 81.99 0 27.52 0 149.46" style="fill:#c6324e"/><polygon points="15.47 216 100 138.25 45.96 161.54 15.47 216" style="fill:#e54c65"/><polygon points="82.01 0 0.71 157.3 53.62 130.48 99.38 75.13 82.01 0" style="fill:#e54c65"/><polygon points="53.62 130.48 0.71 157.3 45.96 161.54 100 138.25 53.62 130.48" style="fill:#c6324e"/><path d="M197.61,162.91a50.22,50.22,0,0,1-21.89-4.71,53.83,53.83,0,0,1-16.87-12.39A56.35,56.35,0,0,1,148,128.26a55.42,55.42,0,0,1-3.88-20.37,54,54,0,0,1,4-20.52A54.36,54.36,0,0,1,176.48,58a51.6,51.6,0,0,1,21.58-4.49A50.22,50.22,0,0,1,220,58.18a53.44,53.44,0,0,1,16.87,12.47,56.36,56.36,0,0,1,10.8,17.63,55.58,55.58,0,0,1,3.8,20.06,53.91,53.91,0,0,1-4,20.52,54.54,54.54,0,0,1-28.2,29.49A50.88,50.88,0,0,1,197.61,162.91Zm-28.12-54.72a40.57,40.57,0,0,0,1.82,12.09,32.41,32.41,0,0,0,5.4,10.41A26.46,26.46,0,0,0,185.6,138a26.15,26.15,0,0,0,12.16,2.74,25.65,25.65,0,0,0,12.46-2.89,26.94,26.94,0,0,0,8.82-7.52,32.8,32.8,0,0,0,5.24-10.49A41.31,41.31,0,0,0,226,107.89a40.62,40.62,0,0,0-1.82-12.09,30.73,30.73,0,0,0-5.47-10.33,27.33,27.33,0,0,0-8.9-7.15,26.36,26.36,0,0,0-12.08-2.66,25.81,25.81,0,0,0-12.39,2.82,27.62,27.62,0,0,0-8.81,7.37,30.92,30.92,0,0,0-5.32,10.41A41.31,41.31,0,0,0,169.49,108.19Z" style="fill:#e54c65"/><path d="M343.07,76H310.24v86H285.31V76h-33V54.08h90.74Z" style="fill:#e54c65"/><path d="M355.23,162V54.08h24.93v86h52.29V162Z" style="fill:#e54c65"/></svg>